<mxfile host="Electron" modified="2024-01-12T17:53:22.324Z" agent="Mozilla/5.0 (Windows NT 10.0; Win64; x64) AppleWebKit/537.36 (KHTML, like Gecko) draw.io/22.1.16 Chrome/120.0.6099.109 Electron/28.1.0 Safari/537.36" etag="RQ7riTcVz7A9ENOehC61" version="22.1.16" type="device">
  <diagram name="Страница — 1" id="R87gwawpsRX5DZW33Yvw">
    <mxGraphModel dx="-618" dy="614" grid="1" gridSize="10" guides="1" tooltips="1" connect="1" arrows="1" fold="1" page="1" pageScale="1" pageWidth="827" pageHeight="1169" math="0" shadow="0">
      <root>
        <mxCell id="0" />
        <mxCell id="1" parent="0" />
        <mxCell id="hZTHAR6i0K3fFT6IlkUh-1" style="edgeStyle=orthogonalEdgeStyle;rounded=0;orthogonalLoop=1;jettySize=auto;html=1;exitX=0.5;exitY=1;exitDx=0;exitDy=0;entryX=0;entryY=0.5;entryDx=0;entryDy=0;" edge="1" parent="1" source="hZTHAR6i0K3fFT6IlkUh-3" target="hZTHAR6i0K3fFT6IlkUh-4">
          <mxGeometry relative="1" as="geometry" />
        </mxCell>
        <mxCell id="hZTHAR6i0K3fFT6IlkUh-2" style="edgeStyle=orthogonalEdgeStyle;rounded=0;orthogonalLoop=1;jettySize=auto;html=1;exitX=0.5;exitY=1;exitDx=0;exitDy=0;entryX=0;entryY=0.5;entryDx=0;entryDy=0;" edge="1" parent="1" source="hZTHAR6i0K3fFT6IlkUh-3" target="hZTHAR6i0K3fFT6IlkUh-5">
          <mxGeometry relative="1" as="geometry" />
        </mxCell>
        <mxCell id="hZTHAR6i0K3fFT6IlkUh-3" value="Инвентарь" style="rounded=0;whiteSpace=wrap;html=1;" vertex="1" parent="1">
          <mxGeometry x="2020" y="70" width="120" height="60" as="geometry" />
        </mxCell>
        <mxCell id="hZTHAR6i0K3fFT6IlkUh-4" value="id" style="rounded=0;whiteSpace=wrap;html=1;" vertex="1" parent="1">
          <mxGeometry x="2110" y="150" width="120" height="60" as="geometry" />
        </mxCell>
        <mxCell id="hZTHAR6i0K3fFT6IlkUh-5" value="Количество" style="rounded=0;whiteSpace=wrap;html=1;" vertex="1" parent="1">
          <mxGeometry x="2110" y="220" width="120" height="60" as="geometry" />
        </mxCell>
      </root>
    </mxGraphModel>
  </diagram>
</mxfile>
